<?xml version="1.0" standalone="no"?>
<!DOCTYPE svg PUBLIC "-//W3C//DTD SVG 20010904//EN"
 "http://www.w3.org/TR/2001/REC-SVG-20010904/DTD/svg10.dtd">
<svg version="1.0" xmlns="http://www.w3.org/2000/svg"
 width="300.000000pt" height="168.000000pt" viewBox="0 0 300.000000 168.000000"
 preserveAspectRatio="xMidYMid meet">
<metadata>
Created by potrace 1.16, written by Peter Selinger 2001-2019
</metadata>
<g transform="translate(0.000000,168.000000) scale(0.100000,-0.100000)"
fill="#000000" stroke="none">
<path d="M2344 1114 c-59 -24 -62 -27 -73 -69 -9 -37 -15 -44 -38 -47 -26 -3
-28 -7 -33 -55 -5 -50 -4 -53 17 -53 27 0 27 5 7 -141 -18 -124 -15 -158 16
-189 27 -27 129 -28 180 -2 29 14 36 24 42 61 4 25 6 46 4 48 -1 2 -17 -2 -35
-8 -64 -22 -71 -3 -49 149 l11 82 54 0 c49 0 53 2 53 24 0 13 3 38 6 55 l7 31
-52 0 c-57 0 -57 0 -42 93 9 55 10 55 -75 21z"/>
<path d="M1875 1014 c-49 -13 -105 -38 -105 -47 0 -5 5 -26 11 -47 l11 -37 49
18 c61 23 132 25 153 3 9 -8 16 -30 16 -47 l0 -32 -81 3 c-71 3 -87 0 -134
-23 -65 -31 -95 -74 -95 -134 0 -88 59 -140 144 -126 50 9 72 20 110 54 l29
26 -7 -37 -7 -38 68 0 69 0 17 148 c25 214 24 235 -17 279 -33 36 -34 37 -122
39 -49 2 -98 1 -109 -2z m125 -271 c0 -31 -44 -93 -77 -109 -42 -19 -77 -12
-98 20 -26 39 3 89 59 104 44 12 116 2 116 -15z"/>
<path d="M2711 1009 c-83 -24 -160 -102 -182 -183 -26 -95 -9 -186 44 -244 48
-52 167 -62 247 -22 86 44 132 122 138 236 4 67 1 87 -17 121 -24 48 -60 76
-116 92 -47 13 -68 13 -114 0z m79 -138 c5 -11 10 -44 10 -73 0 -108 -71 -187
-114 -126 -29 41 -15 156 25 205 17 20 67 16 79 -6z"/>
<path d="M634 987 c-101 -48 -162 -160 -151 -278 10 -113 78 -174 192 -173
141 1 245 118 245 276 0 120 -59 187 -172 195 -52 3 -72 0 -114 -20z m124
-131 c32 -66 -14 -198 -71 -204 -23 -3 -30 2 -43 34 -23 56 0 169 40 197 23
15 61 2 74 -27z"/>
<path d="M1239 976 c-26 -19 -56 -50 -68 -70 -13 -20 -25 -36 -27 -36 -3 0 -1
30 2 67 l7 66 -73 -6 c-40 -3 -75 -8 -78 -11 -2 -3 -8 -45 -13 -93 -7 -80 -31
-248 -45 -315 l-6 -28 80 0 79 0 15 110 c17 120 49 192 94 212 46 21 48 3 24
-159 -12 -81 -24 -151 -27 -155 -2 -5 32 -8 76 -8 92 0 81 -14 101 125 15 101
34 148 72 180 32 27 53 32 61 13 2 -7 -6 -82 -18 -165 l-21 -153 72 0 c85 0
71 -27 109 213 21 130 24 165 15 193 -30 90 -148 65 -230 -48 l-30 -41 0 45
c0 100 -80 130 -171 64z"/>
<path d="M106 983 c-3 -10 -8 -39 -12 -65 l-6 -48 87 0 87 0 -111 -119 c-104
-111 -111 -121 -111 -160 l0 -41 184 0 c207 0 189 -7 202 83 l6 47 -92 0 -92
0 110 118 c99 105 110 121 114 160 l4 42 -183 0 c-164 0 -182 -2 -187 -17z"/>
</g>
</svg>
